/vscmnt/brussel_pixiu_data/_data_brussel/112/vsc11236/PredSimResults/SUBJ10mtu3D/weighted-LRposFixed/trackIG/worker_01.mot
version=1
nRows=5
nColumns=50
inDegrees=yes
endheader
                time	         pelvis_tilt	         pelvis_list	     pelvis_rotation	           pelvis_tx	           pelvis_ty	           pelvis_tz	       hip_flexion_r	     hip_adduction_r	      hip_rotation_r	        knee_angle_r	       ankle_angle_r	         mtp_angle_r	       hip_flexion_l	     hip_adduction_l	      hip_rotation_l	        knee_angle_l	       ankle_angle_l	         mtp_angle_l	    lumbar_extension	      lumbar_bending	     lumbar_rotation	 ercspn_r/activation	 intobl_r/activation	 extobl_r/activation	    abd_r/activation	    add_r/activation	hamstrings_r/activation	bifemsh_r/activation	glut_max_r/activation	iliopsoas_r/activation	rect_fem_r/activation	  vasti_r/activation	gastroc_r/activation	 soleus_r/activation	tib_ant_r/activation	 ercspn_l/activation	 intobl_l/activation	 extobl_l/activation	    abd_l/activation	    add_l/activation	hamstrings_l/activation	bifemsh_l/activation	glut_max_l/activation	iliopsoas_l/activation	rect_fem_l/activation	  vasti_l/activation	gastroc_l/activation	 soleus_l/activation	tib_ant_l/activation	
          0.00000000	         -3.80471076	         -2.94812139	          9.87591991	          0.00000000	          0.82908972	         -0.01332258	         27.63289606	         -0.66640728	         -7.68691871	         -3.22938872	          6.89344716	          0.25290466	        -14.26438320	         -3.41577337	          5.54056166	         -7.51632880	          9.53220747	         24.67048521	         -8.05048999	          1.19531082	         -3.61267853	          0.09038207	          0.16652812	          0.02162924	          0.01241969	          0.09591098	          0.03623709	          0.14927601	          0.01000010	          0.07238844	          0.01118947	          0.01000038	          0.01545146	          0.01098429	          0.26038776	          0.02721698	          0.01000011	          0.01000016	          0.04054341	          0.01806527	          0.02162397	          0.13360817	          0.03268360	          0.30334778	          0.01000221	          0.01000051	          0.23695225	          0.23261174	          0.01787285	
          0.01122394	         -3.87418363	         -2.76731461	          9.68330704	          0.01515439	          0.82749749	         -0.01301099	         27.68847555	         -0.43276215	         -6.56034015	         -4.75267429	          6.62409733	          0.25490209	        -14.35119668	         -3.20021689	          4.85042865	         -9.26122582	          8.97416691	         26.29436751	         -7.85015508	          1.54405228	         -3.79637646	          0.07613919	          0.14028690	          0.01822078	          0.01046254	          0.17248021	          0.03060548	          0.12576096	          0.05701986	          0.06098102	          0.01000103	          0.01000020	          0.01984950	          0.01409186	          0.26052415	          0.07557641	          0.01000017	          0.01000046	          0.03415432	          0.06165131	          0.01821681	          0.11255339	          0.02753312	          0.31765234	          0.01000137	          0.01000117	          0.19961178	          0.21810923	          0.01505633	
          0.02244789	         -3.92851310	         -2.59732052	          9.43416103	          0.03063110	          0.82600532	         -0.01266955	         27.56820672	         -0.23799709	         -5.41270963	         -6.28944628	          6.34433225	          0.24232650	        -14.30903682	         -2.98367593	          4.10421336	        -11.30329754	          8.32996981	         27.84932097	         -7.62749948	          1.92277898	         -3.95725533	          0.06416132	          0.12498687	          0.01534946	          0.05111773	          0.14530033	          0.04256479	          0.10594530	          0.05550007	          0.05137124	          0.01000046	          0.01000014	          0.01672159	          0.01187129	          0.29322059	          0.08968853	          0.01000011	          0.01000043	          0.02877206	          0.05283771	          0.01534845	          0.09481657	          0.02319428	          0.30416635	          0.01000134	          0.01000052	          0.16815564	          0.20143643	          0.01268367	
          0.03367183	         -3.96981873	         -2.43557352	          9.12729943	          0.04622920	          0.82477072	         -0.01223098	         27.31038982	         -0.03230338	         -4.34330904	         -7.59252422	          5.95810334	          0.23406740	        -14.06639616	         -2.77029847	          3.30712920	        -13.72478423	          7.55957801	         29.26997233	         -7.40529631	          2.31643746	         -4.09517947	          0.07951542	          0.10529068	          0.01293063	          0.10067074	          0.15196084	          0.04367381	          0.08925018	          0.06934276	          0.04327584	          0.01000036	          0.01000016	          0.01408658	          0.01000068	          0.31409917	          0.11372520	          0.01000009	          0.01000023	          0.02423797	          0.05605774	          0.01561925	          0.07987484	          0.01953918	          0.29177766	          0.01000095	          0.01096639	          0.14165656	          0.16969621	          0.01068490	
          0.04489578	         -3.99856179	         -2.28081537	          8.76754114	          0.06176664	          0.82394092	         -0.01170050	         27.00168754	          0.19616346	         -3.37758636	         -8.81127676	          5.56785260	          0.22273235	        -13.57645410	         -2.56414804	          2.44980293	        -16.56923768	          6.65780299	         30.38769835	         -7.20015382	          2.72274525	         -4.20912266	          0.07729378	          0.08869831	          0.01089300	          0.12508987	          0.16328079	          0.04241175	          0.07518584	          0.07697726	          0.03645616	          0.01000043	          0.02992279	          0.01186690	          0.01000084	          0.33569602	          0.13729654	          0.01000011	          0.01000024	          0.02041839	          0.07112212	          0.01809921	          0.06728776	          0.01646008	          0.26987140	          0.01000044	          0.01000037	          0.11933338	          0.14295439	          0.01000005	
